<svg xmlns="http://www.w3.org/2000/svg" width="6830.295" height="5121.858" viewBox="-72 -72 5122.722 3841.394"><g stroke="#000" stroke-miterlimit="10" stroke-width=".4"><path fill="none" d="M2318.374 1848.427h341.033"/><path fill="none" stroke-linecap="round" stroke-linejoin="round" d="M2657.527 1846.027c.38 1.44 1.227 2.12 2.08 2.4-.853.28-1.7.96-2.08 2.4"/><text x="2489.091" y="1848.427" stroke="none" font-family="Latin Modern Roman, Computer Modern, serif" font-size="10" transform="translate(174.25 2.153)">x</text><path fill="none" d="M2489.09 1962.238v-227.222"/><path fill="none" stroke-linecap="round" stroke-linejoin="round" d="M2486.69 1736.896c1.44-.38 2.12-1.227 2.4-2.08.28.853.96 1.7 2.4 2.08"/><text x="2489.091" y="1848.427" stroke="none" font-family="Latin Modern Roman, Computer Modern, serif" font-size="10" transform="translate(-2.63 -119.288)">y</text><g fill="red" stroke="red" stroke-dasharray="3.0,3.0" stroke-width=".8"><path fill="none" d="m2346.827 1955.125 284.528-213.396"/><g fill="red" stroke="none"><text x="2489.091" y="1848.427" font-family="Latin Modern Roman, Computer Modern, serif" font-size="10" transform="translate(145.997 -104.023)">y</text><text x="2497.13" y="1848.427" font-family="Latin Modern Roman, Computer Modern, serif" font-size="10" transform="translate(145.997 -104.023)">=</text><text x="2509.296" y="1844.49" font-family="cmmi7" font-size="7" transform="translate(145.997 -104.023)">b</text><path d="M2654.883 1741.704h4.338v.4h-4.338z"/><text x="2508.886" y="1851.875" font-family="cmmi7" font-size="7" transform="translate(145.997 -104.023)">a</text><text x="2514.423" y="1848.427" font-family="Latin Modern Roman, Computer Modern, serif" font-size="10" transform="translate(145.997 -104.023)">x</text></g></g><g fill="red" stroke="red" stroke-dasharray="3.0,3.0" stroke-width=".8"><path fill="none" d="m2346.827 1741.73 284.528 213.395"/><g fill="red" stroke="none"><text x="2489.091" y="1848.427" font-family="Latin Modern Roman, Computer Modern, serif" font-size="10" transform="translate(145.997 109.373)">y</text><text x="2497.13" y="1848.427" font-family="Latin Modern Roman, Computer Modern, serif" font-size="10" transform="translate(145.997 109.373)">=</text><text x="2507.686" y="1848.427" font-family="Cambria Math, STIX Two Math, serif" font-size="10" transform="translate(145.997 109.373)">-</text><text x="2517.074" y="1844.49" font-family="cmmi7" font-size="7" transform="translate(145.997 109.373)">b</text><path d="M2662.66 1955.1h4.338v.4h-4.338z"/><text x="2516.663" y="1851.875" font-family="cmmi7" font-size="7" transform="translate(145.997 109.373)">a</text><text x="2522.201" y="1848.427" font-family="Latin Modern Roman, Computer Modern, serif" font-size="10" transform="translate(145.997 109.373)">x</text></g></g><path fill="none" stroke="#00f" stroke-width="1.2" d="M2548.58 1835.434s2.59-5.722 3.959-8.045 3.973-6.156 5.907-8.695 5.476-6.772 8.035-9.604c2.56-2.833 7.15-7.597 10.414-10.81 3.263-3.215 9.04-8.66 13.107-12.354 4.067-3.695 11.21-9.985 16.207-14.273 4.996-4.287 13.724-11.616 19.803-16.627 6.078-5.012 16.66-13.604 24.006-19.495a4609 4609 0 0 1 28.943-22.963c8.841-6.95 24.17-18.909 34.776-27.132s28.97-22.387 41.668-32.135a22633 22633 0 0 1 49.848-38.124 38346 38346 0 0 1 59.553-45.288 64916 64916 0 0 1 71.09-53.838c21.63-16.356 59.004-44.58 84.801-64.04s70.372-53.053 101.129-76.215a317286 317286 0 0 1 120.545-90.716c36.66-27.574 99.99-75.186 143.68-108.02 43.689-32.833 119.145-89.52 171.204-128.62s141.97-106.616 204-153.185 169.163-126.986 243.065-182.452c73.903-55.466 201.529-151.242 289.573-217.308 88.045-66.065 240.101-180.155 344.989-258.848s410.97-308.317 410.97-308.317M2548.58 1861.42s2.59 5.722 3.959 8.045 3.973 6.156 5.907 8.695 5.476 6.771 8.035 9.604 7.15 7.597 10.414 10.81c3.263 3.215 9.04 8.66 13.107 12.354s11.21 9.985 16.207 14.273c4.996 4.287 13.724 11.615 19.803 16.627 6.078 5.012 16.66 13.604 24.006 19.495a4609 4609 0 0 0 28.943 22.963c8.841 6.95 24.17 18.908 34.776 27.132s28.97 22.386 41.668 32.135a22633 22633 0 0 0 49.848 38.124 38346 38346 0 0 0 59.553 45.288 64916 64916 0 0 0 71.09 53.838c21.63 16.355 59.004 44.58 84.801 64.04s70.372 53.053 101.129 76.214a317286 317286 0 0 0 120.545 90.717c36.66 27.574 99.99 75.186 143.68 108.02 43.689 32.833 119.145 89.52 171.204 128.62s141.97 106.616 204 153.185 169.163 126.986 243.065 182.452c73.903 55.466 201.529 151.242 289.573 217.307 88.045 66.066 240.101 180.156 344.989 258.849s410.97 308.317 410.97 308.317M2429.602 1835.434s-2.59-5.722-3.96-8.045c-1.368-2.323-3.972-6.156-5.907-8.695-1.934-2.539-5.475-6.772-8.035-9.604-2.56-2.833-7.15-7.597-10.413-10.81-3.264-3.215-9.04-8.66-13.108-12.354-4.067-3.695-11.21-9.985-16.207-14.273-4.996-4.287-13.724-11.616-19.802-16.627-6.079-5.012-16.66-13.604-24.006-19.495a4609 4609 0 0 0-28.944-22.963c-8.84-6.95-24.169-18.909-34.775-27.132a13285 13285 0 0 0-41.669-32.135 22633 22633 0 0 0-49.848-38.124 38346 38346 0 0 0-59.553-45.288 64916 64916 0 0 0-71.089-53.838 109773 109773 0 0 0-84.802-64.04c-25.797-19.461-70.371-53.053-101.128-76.215a317286 317286 0 0 0-120.546-90.716c-36.66-27.574-99.99-75.186-143.679-108.02a896319 896319 0 0 0-171.204-128.62c-52.06-39.1-141.971-106.616-204-153.185-62.03-46.569-169.163-126.986-243.065-182.452a4279500 4279500 0 0 0-289.574-217.308C596.244 429.43 444.188 315.34 339.3 236.647S-71.67-71.67-71.67-71.67M2429.602 1861.42s-2.59 5.722-3.96 8.045c-1.368 2.322-3.972 6.156-5.907 8.695-1.934 2.539-5.475 6.771-8.035 9.604s-7.15 7.597-10.413 10.81c-3.264 3.215-9.04 8.66-13.108 12.354-4.067 3.694-11.21 9.985-16.207 14.273-4.996 4.287-13.724 11.615-19.802 16.627-6.079 5.012-16.66 13.604-24.006 19.495a4609 4609 0 0 1-28.944 22.963c-8.84 6.95-24.169 18.908-34.775 27.132a13285 13285 0 0 1-41.669 32.135 22633 22633 0 0 1-49.848 38.124 38346 38346 0 0 1-59.553 45.288 64916 64916 0 0 1-71.089 53.838 109773 109773 0 0 1-84.802 64.04c-25.797 19.46-70.371 53.053-101.128 76.214a317286 317286 0 0 1-120.546 90.717c-36.66 27.574-99.99 75.186-143.679 108.02a896319 896319 0 0 1-171.204 128.62c-52.06 39.1-141.971 106.616-204 153.185-62.03 46.569-169.163 126.986-243.065 182.452a4279500 4279500 0 0 1-289.574 217.307c-88.044 66.066-240.1 180.156-344.988 258.849s-410.97 308.317-410.97 308.317"/><path d="M2547.996 1848.427a2 2 0 1 0-4 0 2 2 0 0 0 4 0Zm-2 0"/><g stroke="none"><text x="2489.091" y="1848.427" font-family="Latin Modern Roman, Computer Modern, serif" font-size="10" transform="translate(60.438 10.366)">A</text><text x="2496.591" y="1849.927" font-family="cmr7" font-size="7" transform="translate(60.438 10.366)">1</text></g><path d="M2434.185 1848.427a2 2 0 1 0-4 0 2 2 0 0 0 4 0Zm-2 0"/><g stroke="none"><text x="2489.091" y="1848.427" font-family="Latin Modern Roman, Computer Modern, serif" font-size="10" transform="translate(-72.425 10.366)">A</text><text x="2496.591" y="1849.927" font-family="cmr7" font-size="7" transform="translate(-72.425 10.366)">2</text></g><path d="M2562.223 1848.427a2 2 0 1 0-4 0 2 2 0 0 0 4 0Zm-2 0"/><g stroke="none"><text x="2489.091" y="1848.427" font-family="Latin Modern Roman, Computer Modern, serif" font-size="10" transform="translate(74.665 -5.033)">F</text><text x="2495.521" y="1849.927" font-family="cmr7" font-size="7" transform="translate(74.665 -5.033)">1</text></g><path d="M2419.959 1848.427a2 2 0 1 0-4 0 2 2 0 0 0 4 0Zm-2 0"/><g stroke="none"><text x="2489.091" y="1848.427" font-family="Latin Modern Roman, Computer Modern, serif" font-size="10" transform="translate(-85.582 -5.033)">F</text><text x="2495.521" y="1849.927" font-family="cmr7" font-size="7" transform="translate(-85.582 -5.033)">2</text></g><g stroke-width=".8"><path fill="none" d="M2489.89 1856.963h55.306"/><path fill="none" stroke-linecap="round" stroke-linejoin="round" d="M2492.05 1860.085c-.467-1.873-1.51-2.758-2.56-3.122 1.05-.364 2.093-1.25 2.56-3.123M2543.036 1853.84c.468 1.874 1.51 2.759 2.56 3.123-1.05.364-2.092 1.249-2.56 3.122"/><text x="2489.091" y="1848.427" stroke="none" font-family="Latin Modern Roman, Computer Modern, serif" font-size="10" transform="translate(25.81 16.574)">a</text></g><g stroke-width=".8"><path fill="none" d="M2489.89 1865.499h69.533"/><path fill="none" stroke-linecap="round" stroke-linejoin="round" d="M2492.05 1868.621c-.467-1.873-1.51-2.758-2.56-3.122 1.05-.365 2.093-1.25 2.56-3.123M2557.263 1862.376c.467 1.874 1.51 2.758 2.56 3.123-1.05.364-2.093 1.249-2.56 3.122"/><text x="2489.091" y="1848.427" stroke="none" font-family="Latin Modern Roman, Computer Modern, serif" font-size="10" transform="translate(33.402 25.11)">c</text></g><g stroke-width=".8"><path fill="none" d="M2546.796 1839.891h12.627"/><path fill="none" stroke-linecap="round" stroke-linejoin="round" d="M2548.956 1843.014c-.467-1.874-1.51-2.759-2.56-3.123 1.05-.364 2.093-1.249 2.56-3.123M2557.263 1836.768c.467 1.874 1.51 2.759 2.56 3.123-1.05.364-2.093 1.249-2.56 3.123"/><g stroke="none"><text x="2489.091" y="1840.094" font-family="Latin Modern Roman, Computer Modern, serif" font-size="10" transform="translate(44.466 -13.536)">p</text><path d="M2541.89 1826.158h30.772v.4h-30.772z"/><text x="2497.424" y="1848.427" font-family="Latin Modern Roman, Computer Modern, serif" font-size="10" transform="translate(44.466 -13.536)">a</text><text x="2502.71" y="1845.538" font-family="cmr7" font-size="7" transform="translate(44.466 -13.536)">2</text><text x="2509.418" y="1848.427" font-family="Latin Modern Roman, Computer Modern, serif" font-size="10" transform="translate(44.466 -13.536)">+</text><text x="2519.418" y="1848.427" font-family="Latin Modern Roman, Computer Modern, serif" font-size="10" transform="translate(44.466 -13.536)">b</text><text x="2523.71" y="1845.538" font-family="cmr7" font-size="7" transform="translate(44.466 -13.536)">2</text></g></g></g></svg>