<?xml version="1.0" encoding="utf-8" standalone="no"?>
<!DOCTYPE svg PUBLIC "-//W3C//DTD SVG 1.1//EN"
  "http://www.w3.org/Graphics/SVG/1.1/DTD/svg11.dtd">
<svg xmlns:xlink="http://www.w3.org/1999/xlink" width="346.32pt" height="255.62pt" viewBox="0 0 346.32 255.62" xmlns="http://www.w3.org/2000/svg" version="1.1">
 <metadata>
  <rdf:RDF xmlns:dc="http://purl.org/dc/elements/1.1/" xmlns:cc="http://creativecommons.org/ns#" xmlns:rdf="http://www.w3.org/1999/02/22-rdf-syntax-ns#">
   <cc:Work>
    <dc:type rdf:resource="http://purl.org/dc/dcmitype/StillImage"/>
    <dc:date>2026-08-31T21:10:17.322843</dc:date>
    <dc:format>image/svg+xml</dc:format>
    <dc:creator>
     <cc:Agent>
      <dc:title>Matplotlib v3.11.1, https://matplotlib.org/</dc:title>
     </cc:Agent>
    </dc:creator>
   </cc:Work>
  </rdf:RDF>
 </metadata>
 <defs>
  <style type="text/css">*{stroke-linejoin: round; stroke-linecap: butt}</style>
 </defs>
 <g id="figure_1">
  <g id="patch_1">
   <path d="M 0 255.62 
L 346.32 255.62 
L 346.32 -0 
L 0 -0 
z
" style="fill: #ffffff"/>
  </g>
  <g id="axes_1">
   <g id="line2d_1">
    <path d="M 218.16 131.06 
L 218.424883 125.70486 
L 218.954649 121.76196 
L 219.749298 117.862651 
L 220.808829 113.940132 
L 222.133244 109.967417 
L 223.722542 105.926429 
L 225.576722 101.802287 
L 227.960669 97.081693 
L 230.609498 92.336159 
L 233.788094 87.104666 
L 237.496455 81.439081 
L 241.734582 75.366053 
L 246.767358 68.546197 
L 252.594783 61.02636 
L 259.481739 52.509163 
L 267.69311 42.724815 
L 277.228896 31.719297 
L 288.618863 18.926113 
L 297.36 9.296951 
L 297.36 9.296951 
" clip-path="url(#p472dd9753d)" style="fill: none; stroke: #0000ff; stroke-width: 2; stroke-linecap: square"/>
   </g>
   <g id="line2d_2">
    <path d="M 110.16 131.06 
L 109.895117 125.70486 
L 109.365351 121.76196 
L 108.570702 117.862651 
L 107.511171 113.940132 
L 106.186756 109.967417 
L 104.597458 105.926429 
L 102.743278 101.802287 
L 100.359331 97.081693 
L 97.710502 92.336159 
L 94.531906 87.104666 
L 90.823545 81.439081 
L 86.585418 75.366053 
L 81.552642 68.546197 
L 75.725217 61.02636 
L 68.838261 52.509163 
L 60.62689 42.724815 
L 51.091104 31.719297 
L 39.701137 18.926113 
L 30.96 9.296951 
L 30.96 9.296951 
" clip-path="url(#p472dd9753d)" style="fill: none; stroke: #0000ff; stroke-width: 2; stroke-linecap: square"/>
   </g>
   <g id="line2d_3">
    <path d="M 218.16 131.06 
L 218.424883 136.41514 
L 218.954649 140.35804 
L 219.749298 144.257349 
L 220.808829 148.179868 
L 222.133244 152.152583 
L 223.722542 156.193571 
L 225.576722 160.317713 
L 227.960669 165.038307 
L 230.609498 169.783841 
L 233.788094 175.015334 
L 237.496455 180.680919 
L 241.734582 186.753947 
L 246.767358 193.573803 
L 252.594783 201.09364 
L 259.481739 209.610837 
L 267.69311 219.395185 
L 277.228896 230.400703 
L 288.618863 243.193887 
L 297.36 252.823049 
L 297.36 252.823049 
" clip-path="url(#p472dd9753d)" style="fill: none; stroke: #0000ff; stroke-width: 2; stroke-linecap: square"/>
   </g>
   <g id="line2d_4">
    <path d="M 110.16 131.06 
L 109.895117 136.41514 
L 109.365351 140.35804 
L 108.570702 144.257349 
L 107.511171 148.179868 
L 106.186756 152.152583 
L 104.597458 156.193571 
L 102.743278 160.317713 
L 100.359331 165.038307 
L 97.710502 169.783841 
L 94.531906 175.015334 
L 90.823545 180.680919 
L 86.585418 186.753947 
L 81.552642 193.573803 
L 75.725217 201.09364 
L 68.838261 209.610837 
L 60.62689 219.395185 
L 51.091104 230.400703 
L 39.701137 243.193887 
L 30.96 252.823049 
L 30.96 252.823049 
" clip-path="url(#p472dd9753d)" style="fill: none; stroke: #0000ff; stroke-width: 2; stroke-linecap: square"/>
   </g>
   <g id="line2d_5">
    <path d="M 59.76 235.46 
L 268.56 26.66 
" clip-path="url(#p472dd9753d)" style="fill: none; stroke-dasharray: 4.81,2.08; stroke-dashoffset: 0; stroke: #ff0000; stroke-width: 1.3"/>
   </g>
   <g id="line2d_6">
    <path d="M 59.76 26.66 
L 268.56 235.46 
" clip-path="url(#p472dd9753d)" style="fill: none; stroke-dasharray: 4.81,2.08; stroke-dashoffset: 0; stroke: #ff0000; stroke-width: 1.3"/>
   </g>
   <g id="patch_2">
    <path d="M 20.16 131.06 
Q 164.16 131.06 306.930163 131.06 
" style="fill: none; stroke: #999999; stroke-width: 1.1; stroke-linecap: round"/>
    <path d="M 301.730163 128.46 
L 306.930163 131.06 
L 301.730163 133.66 
z
" style="fill: #999999; stroke: #999999; stroke-width: 1.1; stroke-linecap: round"/>
   </g>
   <g id="text_1">
    <!-- $x$ -->
    <g style="fill: #999999" transform="translate(315.19 134.436953) scale(0.13 -0.13)">
     <defs>
      <path id="Cmmi10-3f" d="M 500 184 
Q 613 97 819 97 
Q 1019 97 1172 289 
Q 1325 481 1381 709 
L 1672 1844 
Q 1741 2153 1741 2266 
Q 1741 2425 1652 2544 
Q 1563 2663 1403 2663 
Q 1200 2663 1022 2536 
Q 844 2409 722 2214 
Q 600 2019 550 1819 
Q 538 1778 500 1778 
L 422 1778 
Q 372 1778 372 1838 
L 372 1856 
Q 434 2094 584 2320 
Q 734 2547 951 2687 
Q 1169 2828 1416 2828 
Q 1650 2828 1839 2703 
Q 2028 2578 2106 2363 
Q 2216 2559 2386 2693 
Q 2556 2828 2759 2828 
Q 2897 2828 3040 2779 
Q 3184 2731 3275 2631 
Q 3366 2531 3366 2381 
Q 3366 2219 3261 2101 
Q 3156 1984 2994 1984 
Q 2891 1984 2822 2050 
Q 2753 2116 2753 2216 
Q 2753 2350 2845 2451 
Q 2938 2553 3066 2572 
Q 2950 2663 2747 2663 
Q 2541 2663 2389 2472 
Q 2238 2281 2175 2047 
L 1894 916 
Q 1825 659 1825 494 
Q 1825 331 1917 214 
Q 2009 97 2163 97 
Q 2463 97 2698 361 
Q 2934 625 3009 941 
Q 3022 978 3059 978 
L 3138 978 
Q 3163 978 3178 961 
Q 3194 944 3194 922 
Q 3194 916 3188 903 
Q 3097 522 2806 225 
Q 2516 -72 2150 -72 
Q 1916 -72 1727 54 
Q 1538 181 1459 397 
Q 1359 209 1182 68 
Q 1006 -72 806 -72 
Q 669 -72 523 -23 
Q 378 25 287 125 
Q 197 225 197 378 
Q 197 528 301 651 
Q 406 775 563 775 
Q 669 775 741 711 
Q 813 647 813 544 
Q 813 409 723 309 
Q 634 209 500 184 
z
" transform="scale(0.015625)"/>
     </defs>
     <use xlink:href="#Cmmi10-3f" transform="translate(0 0.8125)"/>
    </g>
   </g>
   <g id="patch_3">
    <path d="M 164.16 239.06 
Q 164.16 131.06 164.16 24.289837 
" style="fill: none; stroke: #999999; stroke-width: 1.1; stroke-linecap: round"/>
    <path d="M 161.56 29.489837 
L 164.16 24.289837 
L 166.76 29.489837 
z
" style="fill: #999999; stroke: #999999; stroke-width: 1.1; stroke-linecap: round"/>
   </g>
   <g id="text_2">
    <!-- $y$ -->
    <g style="fill: #999999" transform="translate(171.71 15.636953) scale(0.13 -0.13)">
     <defs>
      <path id="Cmmi10-72" d="M 538 -916 
Q 672 -1147 1006 -1147 
Q 1309 -1147 1531 -934 
Q 1753 -722 1889 -420 
Q 2025 -119 2100 197 
Q 1816 -72 1484 -72 
Q 1231 -72 1053 15 
Q 875 103 776 276 
Q 678 450 678 697 
Q 678 906 734 1126 
Q 791 1347 892 1617 
Q 994 1888 1069 2088 
Q 1153 2322 1153 2472 
Q 1153 2663 1013 2663 
Q 759 2663 595 2402 
Q 431 2141 353 1819 
Q 341 1778 300 1778 
L 225 1778 
Q 172 1778 172 1838 
L 172 1856 
Q 275 2238 487 2533 
Q 700 2828 1025 2828 
Q 1253 2828 1411 2678 
Q 1569 2528 1569 2297 
Q 1569 2178 1516 2047 
Q 1488 1969 1388 1706 
Q 1288 1444 1234 1272 
Q 1181 1100 1147 934 
Q 1113 769 1113 603 
Q 1113 391 1203 244 
Q 1294 97 1491 97 
Q 1888 97 2203 581 
L 2688 2553 
Q 2709 2638 2787 2698 
Q 2866 2759 2956 2759 
Q 3034 2759 3092 2709 
Q 3150 2659 3150 2578 
Q 3150 2541 3144 2528 
L 2509 -19 
Q 2425 -347 2200 -647 
Q 1975 -947 1658 -1130 
Q 1341 -1313 997 -1313 
Q 831 -1313 668 -1248 
Q 506 -1184 406 -1056 
Q 306 -928 306 -756 
Q 306 -581 409 -453 
Q 513 -325 684 -325 
Q 788 -325 858 -389 
Q 928 -453 928 -556 
Q 928 -703 818 -812 
Q 709 -922 563 -922 
Q 556 -919 550 -917 
Q 544 -916 538 -916 
z
" transform="scale(0.015625)"/>
     </defs>
     <use xlink:href="#Cmmi10-72" transform="translate(0 0.8125)"/>
    </g>
   </g>
   <g id="text_3">
    <!-- $y=\frac{b}{a}x$ -->
    <g style="fill: #ff0000" transform="translate(248.598183 58.165326) rotate(-45) scale(0.13 -0.13)">
     <defs>
      <path id="Cmr10-29" d="M 481 850 
Q 428 850 393 890 
Q 359 931 359 978 
Q 359 1031 393 1068 
Q 428 1106 481 1106 
L 4500 1106 
Q 4547 1106 4581 1068 
Q 4616 1031 4616 978 
Q 4616 931 4581 890 
Q 4547 850 4500 850 
L 481 850 
z
M 481 2094 
Q 428 2094 393 2131 
Q 359 2169 359 2222 
Q 359 2269 393 2309 
Q 428 2350 481 2350 
L 4500 2350 
Q 4547 2350 4581 2309 
Q 4616 2269 4616 2222 
Q 4616 2169 4581 2131 
Q 4547 2094 4500 2094 
L 481 2094 
z
" transform="scale(0.015625)"/>
      <path id="Cmmi10-4b" d="M 1106 -72 
Q 719 -72 503 231 
Q 288 534 288 941 
Q 288 1000 317 1173 
Q 347 1347 347 1388 
L 966 3872 
Q 991 3981 997 4044 
Q 997 4147 581 4147 
Q 519 4147 519 4231 
Q 522 4247 533 4287 
Q 544 4328 561 4350 
Q 578 4372 609 4372 
L 1472 4441 
Q 1550 4441 1550 4359 
L 1075 2472 
Q 1438 2828 1806 2828 
Q 2078 2828 2273 2684 
Q 2469 2541 2566 2306 
Q 2663 2072 2663 1806 
Q 2663 1497 2542 1167 
Q 2422 838 2209 555 
Q 1997 272 1712 100 
Q 1428 -72 1106 -72 
z
M 1119 97 
Q 1338 97 1528 280 
Q 1719 463 1838 691 
Q 1966 947 2077 1386 
Q 2188 1825 2188 2088 
Q 2188 2316 2092 2489 
Q 1997 2663 1791 2663 
Q 1559 2663 1348 2492 
Q 1138 2322 978 2088 
L 800 1363 
Q 697 959 691 716 
Q 691 475 795 286 
Q 900 97 1119 97 
z
" transform="scale(0.015625)"/>
      <path id="Cmmi10-79" d="M 1113 -72 
Q 709 -72 476 233 
Q 244 538 244 953 
Q 244 1363 456 1803 
Q 669 2244 1030 2536 
Q 1391 2828 1806 2828 
Q 1997 2828 2147 2725 
Q 2297 2622 2381 2444 
Q 2453 2700 2663 2700 
Q 2744 2700 2798 2651 
Q 2853 2603 2853 2522 
Q 2853 2503 2851 2493 
Q 2850 2484 2847 2472 
L 2400 684 
Q 2356 494 2356 372 
Q 2356 97 2541 97 
Q 2741 97 2845 351 
Q 2950 606 3022 941 
Q 3034 978 3072 978 
L 3150 978 
Q 3175 978 3190 956 
Q 3206 934 3206 916 
Q 3094 469 2961 198 
Q 2828 -72 2528 -72 
Q 2313 -72 2147 54 
Q 1981 181 1941 391 
Q 1528 -72 1113 -72 
z
M 1119 97 
Q 1350 97 1567 270 
Q 1784 444 1941 678 
Q 1947 684 1947 697 
L 2291 2088 
L 2297 2106 
Q 2259 2334 2132 2498 
Q 2006 2663 1791 2663 
Q 1575 2663 1389 2486 
Q 1203 2309 1075 2069 
Q 950 1813 836 1366 
Q 722 919 722 672 
Q 722 450 817 273 
Q 913 97 1119 97 
z
" transform="scale(0.015625)"/>
     </defs>
     <use xlink:href="#Cmmi10-72" transform="translate(0 0.264062)"/>
     <use xlink:href="#Cmr10-29" transform="translate(69.023495 0.264062)"/>
     <use xlink:href="#Cmmi10-4b" transform="translate(175.959099 35.426563) scale(0.7)"/>
     <use xlink:href="#Cmmi10-79" transform="translate(172.959099 -23.874808) scale(0.7)"/>
     <use xlink:href="#Cmmi10-3f" transform="translate(216.157341 0.264062)"/>
     <path d="M 172.959099 22.139063 
L 172.959099 28.389063 
L 209.907341 28.389063 
L 209.907341 22.139063 
L 172.959099 22.139063 
z
"/>
    </g>
   </g>
   <g id="text_4">
    <!-- $y=-\frac{b}{a}x$ -->
    <g style="fill: #ff0000" transform="translate(239.635604 202.239113) rotate(-315) scale(0.13 -0.13)">
     <defs>
      <path id="Cmsy10-11" d="M 653 1472 
Q 600 1472 565 1512 
Q 531 1553 531 1600 
Q 531 1647 565 1687 
Q 600 1728 653 1728 
L 4325 1728 
Q 4375 1728 4408 1687 
Q 4441 1647 4441 1600 
Q 4441 1553 4408 1512 
Q 4375 1472 4325 1472 
L 653 1472 
z
" transform="scale(0.015625)"/>
     </defs>
     <use xlink:href="#Cmmi10-72" transform="translate(0 0.264062)"/>
     <use xlink:href="#Cmr10-29" transform="translate(69.023495 0.264062)"/>
     <use xlink:href="#Cmsy10-11" transform="translate(166.709099 0.264062)"/>
     <use xlink:href="#Cmmi10-4b" transform="translate(253.644646 35.426563) scale(0.7)"/>
     <use xlink:href="#Cmmi10-79" transform="translate(250.644646 -23.874808) scale(0.7)"/>
     <use xlink:href="#Cmmi10-3f" transform="translate(293.842888 0.264062)"/>
     <path d="M 250.644646 22.139063 
L 250.644646 28.389063 
L 287.592888 28.389063 
L 287.592888 22.139063 
L 250.644646 22.139063 
z
"/>
    </g>
   </g>
   <g id="text_5">
    <!-- $F_1$ -->
    <g transform="translate(80.902468 148.836953) scale(0.13 -0.13)">
     <defs>
      <path id="Cmmi10-42" d="M 300 0 
Q 238 0 238 84 
Q 241 100 250 139 
Q 259 178 276 201 
Q 294 225 319 225 
Q 709 225 863 269 
Q 947 297 984 441 
L 1863 3956 
Q 1875 4019 1875 4044 
Q 1875 4113 1797 4122 
Q 1678 4147 1338 4147 
Q 1275 4147 1275 4231 
Q 1278 4247 1287 4286 
Q 1297 4325 1314 4348 
Q 1331 4372 1356 4372 
L 4738 4372 
Q 4800 4372 4800 4288 
L 4647 2963 
Q 4647 2944 4625 2925 
Q 4603 2906 4581 2906 
L 4525 2906 
Q 4459 2906 4459 2988 
Q 4500 3278 4500 3463 
Q 4500 3781 4362 3931 
Q 4225 4081 4015 4114 
Q 3806 4147 3438 4147 
L 2753 4147 
Q 2578 4147 2522 4117 
Q 2466 4088 2419 3928 
L 2009 2297 
L 2491 2297 
Q 2728 2297 2875 2322 
Q 3022 2347 3119 2419 
Q 3216 2491 3280 2627 
Q 3344 2763 3397 2988 
Q 3416 3047 3463 3047 
L 3519 3047 
Q 3584 3047 3584 2963 
L 3194 1381 
Q 3166 1325 3128 1325 
L 3072 1325 
Q 3009 1325 3009 1409 
Q 3025 1475 3034 1519 
Q 3044 1563 3058 1645 
Q 3072 1728 3072 1791 
Q 3072 1975 2909 2025 
Q 2747 2075 2484 2075 
L 1959 2075 
L 1544 416 
Q 1528 353 1528 353 
Q 1528 278 1575 269 
Q 1741 225 2228 225 
Q 2291 225 2291 141 
Q 2269 50 2256 25 
Q 2244 0 2181 0 
L 300 0 
z
" transform="scale(0.015625)"/>
      <path id="Cmr10-64" d="M 594 0 
L 594 225 
Q 1394 225 1394 428 
L 1394 3788 
Q 1063 3628 556 3628 
L 556 3853 
Q 1341 3853 1741 4263 
L 1831 4263 
Q 1853 4263 1873 4245 
Q 1894 4228 1894 4206 
L 1894 428 
Q 1894 225 2694 225 
L 2694 0 
L 594 0 
z
" transform="scale(0.015625)"/>
     </defs>
     <use xlink:href="#Cmmi10-42" transform="translate(0 0.6875)"/>
     <use xlink:href="#Cmr10-64" transform="translate(64.306641 -14.312462) scale(0.7)"/>
    </g>
   </g>
   <g id="text_6">
    <!-- $F_2$ -->
    <g transform="translate(233.637532 148.836953) scale(0.13 -0.13)">
     <defs>
      <path id="Cmr10-31" d="M 319 0 
L 319 172 
Q 319 188 331 206 
L 1325 1306 
Q 1550 1550 1690 1715 
Q 1831 1881 1968 2097 
Q 2106 2313 2186 2536 
Q 2266 2759 2266 3009 
Q 2266 3272 2169 3511 
Q 2072 3750 1880 3894 
Q 1688 4038 1416 4038 
Q 1138 4038 916 3870 
Q 694 3703 603 3438 
Q 628 3444 672 3444 
Q 816 3444 917 3347 
Q 1019 3250 1019 3097 
Q 1019 2950 917 2848 
Q 816 2747 672 2747 
Q 522 2747 420 2851 
Q 319 2956 319 3097 
Q 319 3338 409 3548 
Q 500 3759 670 3923 
Q 841 4088 1055 4175 
Q 1269 4263 1509 4263 
Q 1875 4263 2190 4108 
Q 2506 3953 2690 3670 
Q 2875 3388 2875 3009 
Q 2875 2731 2753 2481 
Q 2631 2231 2440 2026 
Q 2250 1822 1953 1562 
Q 1656 1303 1563 1216 
L 838 519 
L 1453 519 
Q 1906 519 2211 526 
Q 2516 534 2534 550 
Q 2609 631 2688 1141 
L 2875 1141 
L 2694 0 
L 319 0 
z
" transform="scale(0.015625)"/>
     </defs>
     <use xlink:href="#Cmmi10-42" transform="translate(0 0.6875)"/>
     <use xlink:href="#Cmr10-31" transform="translate(64.306641 -14.312462) scale(0.7)"/>
    </g>
   </g>
   <g id="line2d_7">
    <defs>
     <path id="mb594ca6c78" d="M 0 2.25 
C 0.596707 2.25 1.169055 2.012926 1.59099 1.59099 
C 2.012926 1.169055 2.25 0.596707 2.25 0 
C 2.25 -0.596707 2.012926 -1.169055 1.59099 -1.59099 
C 1.169055 -2.012926 0.596707 -2.25 0 -2.25 
C -0.596707 -2.25 -1.169055 -2.012926 -1.59099 -1.59099 
C -2.012926 -1.169055 -2.25 -0.596707 -2.25 0 
C -2.25 0.596707 -2.012926 1.169055 -1.59099 1.59099 
C -1.169055 2.012926 -0.596707 2.25 0 2.25 
z
" style="stroke: #000000"/>
    </defs>
    <g clip-path="url(#p472dd9753d)">
     <use xlink:href="#mb594ca6c78" x="87.792468" y="131.06" style="stroke: #000000"/>
    </g>
   </g>
   <g id="line2d_8">
    <g clip-path="url(#p472dd9753d)">
     <use xlink:href="#mb594ca6c78" x="240.527532" y="131.06" style="stroke: #000000"/>
    </g>
   </g>
  </g>
 </g>
 <defs>
  <clipPath id="p472dd9753d">
   <rect x="5.76" y="12.26" width="334.8" height="237.6"/>
  </clipPath>
 </defs>
</svg>
